<svg xmlns="http://www.w3.org/2000/svg" width="240" height="240" style="width:100%;height:100%;transform:translate3d(0,0,0);content-visibility:visible" viewBox="0 0 240 240"><defs><clipPath id="g"><path d="M0 0h240v240H0z"/></clipPath><clipPath id="o"><path d="M0 0h240v240H0z"/></clipPath><clipPath id="n"><path d="M0 0h240v240H0z"/></clipPath><clipPath id="m"><path d="M0 0h240v240H0z"/></clipPath><clipPath id="j"><path d="M0 0h240v240H0z"/></clipPath><clipPath id="h"><path d="M0 0h240v240H0z"/></clipPath><filter id="a" width="100%" height="100%" x="0%" y="0%" filterUnits="objectBoundingBox"><feComponentTransfer in="SourceGraphic"><feFuncA tableValues="1.0 0.0" type="table"/></feComponentTransfer></filter><filter id="c" width="100%" height="100%" x="0%" y="0%" filterUnits="objectBoundingBox"><feComponentTransfer in="SourceGraphic"><feFuncA tableValues="1.0 0.0" type="table"/></feComponentTransfer></filter><filter id="e" width="100%" height="100%" x="0%" y="0%" filterUnits="objectBoundingBox"><feComponentTransfer in="SourceGraphic"><feFuncA tableValues="1.0 0.0" type="table"/></feComponentTransfer></filter><path id="b" style="display:none"/><path id="d" style="display:none"/><path id="f" fill-opacity="0" stroke-linecap="round" stroke-linejoin="round" style="display:none"/><mask id="l" mask-type="alpha" maskUnits="userSpaceOnUse"><g filter="url(#a)"><path fill="#fff" d="M0 0h240v240H0z" opacity="0"/><use xmlns:ns1="http://www.w3.org/1999/xlink" ns1:href="#b"/></g></mask><mask id="k" mask-type="alpha" maskUnits="userSpaceOnUse"><g filter="url(#c)"><path fill="#fff" d="M0 0h240v240H0z" opacity="0"/><use xmlns:ns2="http://www.w3.org/1999/xlink" ns2:href="#d"/></g></mask><mask id="i" mask-type="alpha" maskUnits="userSpaceOnUse"><g filter="url(#e)"><path fill="#fff" d="M0 0h240v240H0z" opacity="0"/><use xmlns:ns3="http://www.w3.org/1999/xlink" ns3:href="#f"/></g></mask></defs><g clip-path="url(#g)"><g class="5" clip-path="url(#h)" style="display:none"><path fill="none" class="primary" style="display:none"/><g mask="url(#i)" style="display:none"><path class="primary"/></g><path fill="none" class="primary" style="display:none"/><path class="primary" style="display:none"/><path class="primary" style="display:none"/><path class="primary" style="display:none"/></g><g class="5" clip-path="url(#j)" style="display:none"><path class="primary" style="display:none"/><path class="primary" style="display:none"/><path class="primary" style="display:none"/><g mask="url(#k)" style="display:none"><path fill="none" class="primary"/></g><g mask="url(#l)" style="display:none"><path fill="none" class="primary"/></g><path fill="none" class="primary" style="display:none"/></g><g class="5" clip-path="url(#m)" style="display:none"><path class="primary" style="display:none"/><path class="primary" style="display:none"/><path fill="none" class="primary" style="display:none"/><path fill="none" class="primary" style="display:none"/><path fill="none" class="primary" style="display:none"/><path class="primary" style="display:none"/></g><g clip-path="url(#n)" style="display:block"><path fill="none" class="primary" style="display:none"/><path fill="none" class="primary" style="display:none"/><path fill="#121331" d="M0 50.026c27.614 0 50-22.386 50-50s-22.386-50-50-50-50 22.386-50 50 22.386 50 50 50m0-85c19.33 0 35 15.67 35 35s-15.67 35-35 35-35-15.67-35-35 15.67-35 35-35M-89.597 0C-76.287-38.66-41.835-68.919 0-68.919S76.286-38.66 89.596 0C76.286 38.66 41.835 68.919 0 68.919S-76.287 38.66-89.597 0m194.241-2.286C90.379-46.863 50.522-83.919 0-83.919S-90.379-46.863-104.644-2.286a7.5 7.5 0 0 0 0 4.572C-90.379 46.863-50.522 83.919 0 83.919S90.379 46.863 104.644 2.286a7.5 7.5 0 0 0 0-4.572" class="primary" style="display:block" transform="translate(120 120.013)"/><path fill="#121331" d="M0 50.026c27.614 0 50-22.386 50-50s-22.386-50-50-50-50 22.386-50 50 22.386 50 50 50m0-85c19.33 0 35 15.67 35 35s-15.67 35-35 35-35-15.67-35-35 15.67-35 35-35M-89.597 0C-76.287-38.66-41.835-68.919 0-68.919S76.286-38.66 89.596 0C76.286 38.66 41.835 68.919 0 68.919S-76.287 38.66-89.597 0m194.241-2.286C90.379-46.863 50.522-83.919 0-83.919S-90.379-46.863-104.644-2.286a7.5 7.5 0 0 0 0 4.572C-90.379 46.863-50.522 83.919 0 83.919S90.379 46.863 104.644 2.286a7.5 7.5 0 0 0 0-4.572" class="primary" style="display:none" transform="translate(120 120.013)"/></g><g clip-path="url(#o)" style="display:none"><path fill="none" class="primary" style="display:none"/><path fill="none" class="primary" style="display:none"/><path fill="none" class="primary" style="display:none"/><path class="primary" style="display:none"/></g></g></svg>